<?xml version="1.0" encoding="utf-8"?>
<!-- Generator: Adobe Illustrator 25.0.1, SVG Export Plug-In . SVG Version: 6.00 Build 0)  -->
<svg version="1.1" id="Layer_1" xmlns="http://www.w3.org/2000/svg" xmlns:xlink="http://www.w3.org/1999/xlink" x="0px" y="0px"
	 viewBox="0 0 476 409.4" enable-background="new 0 0 476 409.4" xml:space="preserve">
<path fill-rule="evenodd" clip-rule="evenodd" d="M325,80c3.7-0.3,7,0.7,10,3.2l0.3-0.3l10.6,10.8l0.5,0.3
	c30.7,30.7,46,67.7,46,111.1c0.2,43.2-15,80.2-45.5,111.1h0.5l-11.1,10.6c-2.8,2.3-6,3.4-9.5,3.4s-6.6-1.1-9.3-3.4l-0.3,0.3
	l-19-19.3c-2.5-2.8-3.8-6.1-4-9.8c-0.2-3.7,0.9-7.1,3.2-10h-0.3l10.9-11c19.7-19.9,29.4-44,29.1-72.2c-0.2-28-10.1-51.9-29.9-71.7
	l-0.3-0.5l-0.3,0.3L296.1,122c-2.1-2.8-3.2-6-3.2-9.5s1.1-6.6,3.2-9.3V103l19-19C318,81.5,321.3,80.1,325,80z M259.6,60.6
	c5.4,3,5.6,8,5.6,8v294.8h-0.3l0.3,1.6c0,3.2-1.1,5.8-3.4,7.9c-2.5,2.3-5.3,3.4-8.5,3.4c-2.3,0-4.4-0.6-6.3-1.9l-92.5-53.7v0.3
	l-64.8-37.3h-81v-0.3c-2.5,0-4.5-0.8-6.1-2.4c-1.8-1.6-2.6-3.6-2.6-6.1V159.8c0-2.5,0.9-4.5,2.6-6.1c1.6-1.8,3.6-2.6,6.1-2.6v-0.3
	l90.6,0.5L247.6,60C247.6,60,254.9,56.8,259.6,60.6z M360.4,59.3l-0.3-0.5l-0.3,0.3l-10.6-10.6v-0.3c-2.1-2.8-3.2-5.9-3.2-9.3
	c0-3.5,1.1-6.7,3.2-9.5l19-19.3c2.8-2.5,6.1-3.8,9.8-4c3.7,0,7.1,1.1,10,3.2l11,10.6l0.3,0.5c50.9,51,76.5,112.5,76.7,184.6
	c0.2,71.9-25.1,133.4-75.9,184.6l-10.6,10.8l-0.3-0.3c-2.6,2.1-5.7,3.2-9.3,3.2c-3.5,0-6.6-1-9.3-2.9h-0.3l-19-19
	c-2.5-2.8-3.8-6.1-4-9.8c-0.4-3.7,0.7-7.1,3.2-10l-0.3-0.3l10.8-10.6c40-40.4,59.9-88.9,59.8-145.7
	C420.8,148.1,400.6,99.5,360.4,59.3z"/>
</svg>
