<?xml version="1.0" encoding="utf-8"?>
<!-- Generator: Adobe Illustrator 25.0.1, SVG Export Plug-In . SVG Version: 6.00 Build 0)  -->
<svg version="1.1" id="Layer_1" xmlns="http://www.w3.org/2000/svg" xmlns:xlink="http://www.w3.org/1999/xlink" x="0px" y="0px"
	 viewBox="0 0 476 409.4" enable-background="new 0 0 476 409.4" xml:space="preserve">
<path fill-rule="evenodd" clip-rule="evenodd" d="M408.4,409.4c-3.7,0-7-1.3-9.8-4L37,43.9c-2.6-2.6-4-5.9-4-9.8s1.3-7.1,4-9.8
	L56.6,4.8l0.3-0.5C59.7,1.4,63,0,66.9,0c3.7,0,7,1.4,9.8,4.2l361.5,361.5c2.8,2.8,4.2,6.1,4.2,9.8c0,3.9-1.4,7.1-4.2,9.8l-20.1,20.1
	C415.5,408.1,412.2,409.4,408.4,409.4z M253.4,376.6c-2.6,0-4.8-0.6-6.6-1.9L89.7,284H8.5c-2.5,0-4.4-0.8-5.8-2.4
	c-1.8-1.8-2.6-3.8-2.6-6.1V160c0-2.5,0.9-4.5,2.6-6.1c1.4-1.8,3.3-2.6,5.8-2.6l0.3,0.3v-0.3h90.6L265,315.8v49.5
	c0,3.2-1.1,5.9-3.4,8.2C259.3,375.6,256.5,376.6,253.4,376.6z M325,79.9c3.7-0.2,7,1,10,3.4l10.8,10.6l0.3,0.5
	c23.1,22.9,37.6,50.4,43.6,82.5c5.6,31.4,2.2,61.7-10.3,91l-43.9-44.2c2.8-16.2,1.9-32.2-2.6-47.9c-4.9-16.2-13.5-30.4-25.7-42.6
	l-0.3-0.5l-0.3,0.3L296,122.2c-2.3-2.8-3.4-5.9-3.4-9.3c0-3.5,1.1-6.7,3.4-9.5l0,0l19.3-19.3C317.9,81.5,321.2,80.1,325,79.9z
	 M253.4,58.7c3,0,5.6,1.1,7.7,3.2c2.1,1.8,3.4,4.1,4,6.9v84.1l-65-63.9l47.5-29C249.5,59.2,251.4,58.7,253.4,58.7z M388.2,9.8V9.5
	L399,20.3h-0.3l0.5,0.3c41.6,41.6,66.3,91.6,74.1,150c7.8,57.1-2.2,110.8-29.9,161.1L402.7,291c17.3-38.6,22.3-78.9,15.1-120.9
	c-7.4-42.8-26.5-79.7-57.4-110.5l-0.5-0.3l-9.5-9.5l-1.3-1.1l0.3-0.3c-2.3-2.6-3.4-5.7-3.4-9.3c0-3.5,1.1-6.6,3.4-9.3l-0.3-0.3
	l19-19h0.3c2.6-2.6,5.9-4.1,9.8-4.2C381.9,6.2,385.3,7.3,388.2,9.8z"/>
</svg>
